<svg id="Capa_1" enable-background="new 0 0 512 512" height="512" viewBox="0 0 512 512" width="512" xmlns="http://www.w3.org/2000/svg"><g><path d="m406.278 354.28-10.903 2.701-51.509-21.119-5.11-8.34-.441-.171-2.227.527-57.467 33.566h-42.409l-60.823-34.101h-1.712l-.437.17-6.393 10.215-54.599 18.565-6.518-1.993c-16.043 9.193-26.414 26.728-26.414 46.198v101.83c0 5.341 4.329 9.67 9.67 9.67h334.026c5.341 0 9.67-4.33 9.67-9.67v-101.785c.001-19.156-10.062-36.923-26.404-46.263z" fill="#e4f6ff"/><path d="m108.986 419.387c0-20.996 6.182-41.522 17.776-59.027l7.694-11.617-22.208 7.551-6.518-1.993c-16.043 9.193-26.414 26.728-26.414 46.198v101.83c0 5.341 4.329 9.67 9.67 9.67h19.999c.001-21.302.001-63.251.001-92.612z" fill="#d3effb"/><path d="m169.423 170.09-2.473 1.257c-9.075 4.923-15.855 15.694-15.855 26.358 0 15.838 15.573 28.875 33.264 27.454l3.55-4.504v-40.756z" fill="#ffbc85"/><path d="m171.562 197.705c0-7.922 3.746-15.898 9.391-21.497l-11.531-6.118-2.473 1.257c-9.075 4.923-15.855 15.694-15.855 26.358 0 15.838 15.573 28.875 33.264 27.454l2.804-3.557c-9.222-4.788-15.6-13.766-15.6-23.897z" fill="#f5a96c"/><path d="m345.493 170.94-4.031-.85-15.839 10.489v43.209l2.056 1.371c17.665 1.419 33.266-11.597 33.266-27.454 0-10.708-6.121-21.706-15.452-26.765z" fill="#ffbc85"/><path d="m346.091 171.295c-.201-.116-.394-.245-.598-.355l-4.031-.85-15.839 10.489v43.209l2.056 1.371c6.676.536 13.056-.992 18.412-3.953z" fill="#f5a96c"/><path d="m297.129 310.248c-.924-1.215-1.472-2.711-1.477-4.311l-.02-23.558-2.476-1.803h-74.286l-2.527 1.697v23.621c0 2.25-.788 3.767-1.957 4.881l-1.697 3.454 29.704 29.703h28.158l27.049-28.502v-4.644c-.161-.173-.324-.345-.471-.538z" fill="#ffbc85"/><path d="m256 280.577h-37.129l-2.527 1.697v23.621c0 2.25-.788 3.767-1.957 4.881l-1.697 3.454 29.704 29.703h13.607v-63.356z" fill="#f5a96c"/><path d="m320.858 177.559h-128.771l-7.775 4.355v41.29c0 36.943 28.946 70.685 72.731 70.685 38.976 0 70.686-31.71 70.686-70.685v-41.29z" fill="#fed1a3"/><path d="m231.451 223.204v-41.29l7.775-4.355h-47.139l-7.775 4.355v41.29c0 36.943 28.946 70.685 72.731 70.685 7.989 0 15.663-1.351 22.831-3.805-29.862-9.804-48.423-37.307-48.423-66.88z" fill="#ffbc85"/><path d="m145.943 512v-99.65c0-4.267-3.459-7.726-7.726-7.726s-7.726 3.459-7.726 7.726v99.65z" fill="#d3effb"/><path d="m381.509 512v-99.65c0-4.267-3.459-7.726-7.726-7.726s-7.726 3.459-7.726 7.726v99.65z" fill="#d3effb"/><path d="m343.731 136.45-5.416-4.219h-162.403l-7.603 4.219c-30.108 39.182 28.856 52.332 64.058 56.619 15.711 1.913 31.594 1.913 47.305 0 35.202-4.286 94.167-17.437 64.059-56.619z" fill="#477b9e"/><path d="m215.894 137.345 9.215-5.114h-49.197l-7.603 4.219c-25.475 33.152 12.818 47.667 46.53 53.946-13.654-12.596-16.861-29.736 1.055-53.051z" fill="#365e7d"/><path d="m296.799 5.96c-26.608-7.946-54.951-7.946-81.558 0-55.378 16.538-137.645 76.031-46.932 114.589l5.369 4.471h166.411l3.642-4.471c90.713-38.558 8.446-98.052-46.932-114.589z" fill="#e4f6ff"/><path d="m234.615 1.63c-6.525.992-13 2.426-19.375 4.33-55.378 16.538-137.645 76.031-46.932 114.589l5.369 4.471h50.479l-5.369-5.183c-74.513-36.711-32.312-89.794 15.828-118.207z" fill="#d3effb"/><path d="m286.992 58.482c-4.098-1.19-8.384 1.172-9.571 5.271-1.996 6.889-7.208 12.252-13.695 14.672v-22.039h2.937c4.267 0 7.726-3.459 7.726-7.726s-3.459-7.726-7.726-7.726h-2.937v-4.594c2.615-1.238 4.429-3.894 4.429-6.98 0-4.267-3.459-7.726-7.726-7.726h-8.859c-4.267 0-7.726 3.459-7.726 7.726 0 3.086 1.814 5.742 4.43 6.98v4.594h-2.937c-4.267 0-7.726 3.459-7.726 7.726s3.459 7.726 7.726 7.726h2.937v22.039c-6.487-2.42-11.698-7.783-13.695-14.672-1.187-4.099-5.474-6.46-9.571-5.271-4.099 1.188-6.458 5.473-5.271 9.571 3.924 13.539 15.163 23.63 28.62 26.446.522 3.759 3.741 6.656 7.644 6.656s7.121-2.897 7.644-6.656c13.457-2.816 24.696-12.907 28.619-26.446 1.187-4.098-1.173-8.383-5.272-9.571z" fill="#ffc250"/><path d="m270.104 377.413-1.269-1.459h-25.411l-1.488 1.459-10.324 134.587h48.814z" fill="#f87c68"/><path d="m406.784 332.965-54.292-20.98c-3.715-1.436-7.89.412-9.326 4.127l-6.591 17.056c-1.436 3.715.412 7.89 4.127 9.326l54.292 20.98c3.715 1.436 7.89-.412 9.326-4.127l6.591-17.056c1.435-3.715-.412-7.891-4.127-9.326z" fill="#ffe07d"/><path d="m369.941 347.602 7.352-19.025c.972-2.516 3.073-4.257 5.499-4.883l-30.3-11.709c-3.715-1.436-7.89.412-9.326 4.127l-6.591 17.056c-1.436 3.715.412 7.89 4.127 9.326l29.444 11.378c-.881-1.908-1.023-4.155-.205-6.27z" fill="#ffc250"/><path d="m105.216 332.965 54.292-20.98c3.715-1.436 7.89.412 9.326 4.127l6.591 17.056c1.436 3.715-.412 7.89-4.127 9.326l-54.292 20.98c-3.715 1.436-7.89-.412-9.326-4.127l-6.591-17.056c-1.435-3.715.412-7.891 4.127-9.326z" fill="#ffe07d"/><path d="m140.068 347.659-7.245-18.748c-.899-2.327-.623-4.816.533-6.82l-28.14 10.874c-3.715 1.436-5.563 5.611-4.127 9.326l6.591 17.056c1.436 3.715 5.611 5.563 9.326 4.127l28.476-11.004c-2.389-.619-4.457-2.334-5.414-4.811z" fill="#ffc250"/><path d="m336.653 107.775c-11.54 3.768-37.548 10.201-80.633 10.201s-69.094-6.432-80.633-10.201c-3.493-1.14-7.078 1.455-7.078 5.129v23.546c10.907 5.303 24.923 8.961 38.537 11.474 32.492 6 65.856 6 98.348 0 13.613-2.514 27.63-6.171 38.537-11.474v-23.546c0-3.674-3.585-6.269-7.078-5.129z" fill="#ffe07d"/><g><path d="m208.837 118.904c0-1.391.38-2.663 1.018-3.756-16.539-2.196-27.872-5.219-34.468-7.373-3.492-1.14-7.078 1.455-7.078 5.129v23.546c10.907 5.303 24.923 8.961 38.537 11.474.662.122 1.327.227 1.991.344z" fill="#ffc250"/></g><path d="m271.064 343.393-3.05-2.036c-8.667 0-15.297 0-24.028 0l-1.421.944-13.109 16.053v2.61l12.479 16.448h28.169l12.459-16.425.823-2.325z" fill="#f87c68"/><path d="m257.958 359.698c0-.868.3-1.71.849-2.383l11.682-14.306-2.475-1.652h-24.028l-1.421.944-13.109 16.053v2.61l12.484 16.454c11.704-.003 16.46-.004 28.164-.006l.166-.219-11.546-15.219c-.497-.654-.766-1.454-.766-2.276z" fill="#ec625e"/><g fill="#d3effb"><path d="m285.201 363.883c3.256 3.575 8.795 3.834 12.37.577l40.744-37.109-38.081-14.748c-.977-.377-1.879-1.004-2.633-1.817l-26.736 24.351c-3.575 3.257-3.834 8.795-.578 12.37z"/><path d="m173.678 327.345 40.751 37.116c3.575 3.256 9.114 2.998 12.37-.577l14.914-16.375c3.256-3.575 2.998-9.114-.578-12.37l-26.749-24.363c-1.36 1.296-3.238 2.043-5.021 2.734v-.001z"/></g></g></svg>